<svg width="24" height="24" viewBox="0 0 24 24" fill="none" xmlns="http://www.w3.org/2000/svg">
<path fill-rule="evenodd" clip-rule="evenodd" d="M23.75 7C23.75 3.27208 20.7279 0.25 17 0.25H7C3.27208 0.25 0.25 3.27208 0.25 7V17C0.25 20.7279 3.27208 23.75 7 23.75H17C20.7279 23.75 23.75 20.7279 23.75 17V7ZM12.7432 5.89823C12.6935 5.53215 12.3797 5.25 12 5.25L11.8982 5.25685L11.8006 5.27679C11.4832 5.36411 11.25 5.65482 11.25 6V11.249L6 11.25L5.89823 11.2568C5.53215 11.3065 5.25 11.6203 5.25 12L5.25685 12.1018C5.30651 12.4678 5.6203 12.75 6 12.75L11.25 12.749V18L11.2568 18.1018C11.3065 18.4678 11.6203 18.75 12 18.75L12.1018 18.7432C12.4678 18.6935 12.75 18.3797 12.75 18V12.75H18L18.1018 12.7432C18.4678 12.6935 18.75 12.3797 18.75 12L18.7432 11.8982C18.6935 11.5322 18.3797 11.25 18 11.25H12.75V6L12.7432 5.89823Z" fill="#262626"/>
</svg>
