<svg width="25" height="24" viewBox="0 0 25 24" fill="none" xmlns="http://www.w3.org/2000/svg">
<path fill-rule="evenodd" clip-rule="evenodd" d="M12.5001 23.7501C18.9894 23.7501 24.2501 18.4895 24.2501 12.0001C24.2501 5.51078 18.9894 0.250122 12.5001 0.250122C10.9374 0.250122 9.41604 0.555722 8.00234 1.14193C6.57662 1.73312 5.28191 2.6013 4.19159 3.69162C3.42913 4.45408 2.7753 5.31649 2.24886 6.25376L2.25 2.50002L2.24315 2.39825C2.19349 2.03218 1.8797 1.75002 1.5 1.75002C1.08579 1.75002 0.75 2.08581 0.75 2.50002V7.9851L0.756847 8.08687C0.806509 8.45295 1.1203 8.7351 1.5 8.7351H7.10141L7.20318 8.72826C7.56926 8.67859 7.85141 8.3648 7.85141 7.9851C7.85141 7.57089 7.51562 7.2351 7.10141 7.2351L3.42306 7.23406C3.90349 6.32108 4.52048 5.48405 5.25225 4.75228C6.20394 3.80059 7.33364 3.04306 8.57689 2.52753C9.80925 2.01652 11.1355 1.75012 12.5001 1.75012C18.161 1.75012 22.7501 6.3392 22.7501 12.0001C22.7501 17.661 18.161 22.2501 12.5001 22.2501C9.56722 22.2501 6.83522 21.0127 4.90355 18.8817C4.62536 18.5749 4.15106 18.5516 3.84417 18.8298C3.53728 19.108 3.51401 19.5823 3.7922 19.8892C6.0053 22.3306 9.13936 23.7501 12.5001 23.7501ZM13.1618 4.93606C13.1121 4.56998 12.7983 4.28783 12.4186 4.28783C12.0044 4.28783 11.6686 4.62362 11.6686 5.03783V11.6894L8.32626 15.0317L8.25364 15.1158C8.03578 15.4094 8.05999 15.8261 8.32626 16.0924C8.61915 16.3853 9.09402 16.3853 9.38692 16.0924L13.1686 12.3107V5.03783L13.1618 4.93606Z" fill="#262626"/>
</svg>
