<svg width="25" height="25" viewBox="0 0 25 25" fill="none" xmlns="http://www.w3.org/2000/svg">
<path fill-rule="evenodd" clip-rule="evenodd" d="M4.1156 0.502159C4.18853 0.53259 4.2465 0.590564 4.27693 0.663489L5.06029 2.54074L7.08774 2.70566C7.25288 2.71909 7.37586 2.86386 7.36243 3.029C7.35602 3.10775 7.3188 3.18081 7.25885 3.23228L5.71555 4.55741L6.18522 6.53658C6.22347 6.69779 6.1238 6.85949 5.96259 6.89775C5.88571 6.91599 5.80473 6.90317 5.73725 6.86205L4.00007 5.80377L2.2629 6.86205C2.1214 6.94825 1.93682 6.90343 1.85062 6.76193C1.80951 6.69445 1.79668 6.61347 1.81492 6.53658L2.2846 4.55741L0.741292 3.23228C0.615586 3.12435 0.60118 2.93495 0.709114 2.80924C0.760591 2.74929 0.833642 2.71207 0.912402 2.70566L2.93985 2.54074L3.72321 0.663489C3.78702 0.510583 3.9627 0.438353 4.1156 0.502159ZM4.1156 9.25216C4.18853 9.28259 4.2465 9.34056 4.27693 9.41349L5.06029 11.2907L7.08774 11.4557C7.25288 11.4691 7.37586 11.6139 7.36243 11.779C7.35602 11.8578 7.3188 11.9308 7.25885 11.9823L5.71555 13.3074L6.18522 15.2866C6.22347 15.4478 6.1238 15.6095 5.96259 15.6477C5.88571 15.666 5.80473 15.6532 5.73725 15.6121L4.00007 14.5538L2.2629 15.6121C2.1214 15.6983 1.93682 15.6534 1.85062 15.5119C1.80951 15.4444 1.79668 15.3635 1.81492 15.2866L2.2846 13.3074L0.741292 11.9823C0.615586 11.8743 0.60118 11.6849 0.709114 11.5592C0.760591 11.4993 0.833642 11.4621 0.912402 11.4557L2.93985 11.2907L3.72321 9.41349C3.78702 9.26058 3.9627 9.18835 4.1156 9.25216ZM4.27693 18.1635C4.2465 18.0906 4.18853 18.0326 4.1156 18.0022C3.9627 17.9384 3.78702 18.0106 3.72321 18.1635L2.93985 20.0407L0.912402 20.2057C0.833642 20.2121 0.760591 20.2493 0.709114 20.3092C0.60118 20.4349 0.615586 20.6243 0.741292 20.7323L2.2846 22.0574L1.81492 24.0366C1.79668 24.1135 1.80951 24.1944 1.85062 24.2619C1.93682 24.4034 2.1214 24.4483 2.2629 24.3621L4.00007 23.3038L5.73725 24.3621C5.80473 24.4032 5.88571 24.416 5.96259 24.3977C6.1238 24.3595 6.22347 24.1978 6.18522 24.0366L5.71555 22.0574L7.25885 20.7323C7.3188 20.6808 7.35602 20.6078 7.36243 20.529C7.37586 20.3639 7.25288 20.2191 7.08774 20.2057L5.06029 20.0407L4.27693 18.1635ZM24.0001 20.75H10.5001L10.3983 20.7569C10.0322 20.8065 9.75007 21.1203 9.75007 21.5C9.75007 21.9142 10.0859 22.25 10.5001 22.25H24.0001L24.1018 22.2432C24.4679 22.1935 24.7501 21.8797 24.7501 21.5C24.7501 21.0858 24.4143 20.75 24.0001 20.75ZM24.0001 12H10.5001L10.3983 12.0069C10.0322 12.0565 9.75007 12.3703 9.75007 12.75C9.75007 13.1642 10.0859 13.5 10.5001 13.5H24.0001L24.1018 13.4932C24.4679 13.4435 24.7501 13.1297 24.7501 12.75C24.7501 12.3358 24.4143 12 24.0001 12ZM24.0001 3.25001H10.5001L10.3983 3.25686C10.0322 3.30652 9.75007 3.62032 9.75007 4.00001C9.75007 4.41423 10.0859 4.75001 10.5001 4.75001H24.0001L24.1018 4.74317C24.4679 4.69351 24.7501 4.37971 24.7501 4.00001C24.7501 3.5858 24.4143 3.25001 24.0001 3.25001Z" fill="#262626"/>
</svg>
